# xmcd
#
# Track frame offsets:
#	182
#	20630
#	44542
#	63487
#	83155
#	96170
#	127822
#	145142
#	161112
#	178647
#	199777
#	214002
#	225367
#	244495
#
# Disc length: 3604 seconds
#
# Revision: 0
# Processed by: cddbd v1.5.2PL0 Copyright (c) Steve Scherf et al.
# Submitted via: audiograbber 1.83.01
#
DISCID=c20e120e
DTITLE=Calvin Russell - Le Voyageur
DYEAR=1993
DGENRE=Roots-Rock
TTITLE0=Living On The End Of A Gun [live]
TTITLE1=Characters [live]
TTITLE2=My Way [live]
TTITLE3=One Meatball [live]
TTITLE4=A Crack In Time [live]
TTITLE5=Crossroads [live]
TTITLE6=Play With Fire [live]
TTITLE7=You Don't Know [live]
TTITLE8=Should've Been Home With You [live]
TTITLE9=Rockin' The Republicans [live]
TTITLE10=It's Just You [live]
TTITLE11=Down In Texas [live]
TTITLE12=North Austin Slim [live]
TTITLE13=Maybe Someday [live]
EXTD=
EXTT0=
EXTT1=
EXTT2=
EXTT3=
EXTT4=
EXTT5=
EXTT6=
EXTT7=
EXTT8=
EXTT9=
EXTT10=
EXTT11=
EXTT12=
EXTT13=
PLAYORDER=
